<?xml version="1.0" standalone="no"?>
<!DOCTYPE svg PUBLIC "-//W3C//DTD SVG 1.1//EN"
  "http://www.w3.org/Graphics/SVG/1.1/DTD/svg11.dtd">
<svg version="1.1" xmlns="http://www.w3.org/2000/svg" xmlns:xlink="http://www.w3.org/1999/xlink" width="896" height="532" viewBox="-992 -32.5 1792 1064" id="ccdiagram"><filter id="grayscale"><feColorMatrix type="matrix" values="0.3333 0.3333 0.3333 0 0 0.3333 0.3333 0.3333 0 0 0.3333 0.3333 0.3333 0 0 0 0 0 1 0"></feColorMatrix></filter><defs><style type="text/css">@import url('https://fonts.googleapis.com/css?family=Open+Sans:400,700|Inconsolata:400');</style></defs><g><g style="pointer-events: none;"><g><pattern id="gridPatternMinor" x="0" y="37" width="128" height="74" patternUnits="userSpaceOnUse"><path d="M 0 0 L 128 74" stroke="#eee" stroke-width="1"></path><path d="M 128 0 L 0 74" stroke="#eee" stroke-width="1"></path></pattern><polygon points="0 0, 768 444, -192 999, -960 555" fill="url(#gridPatternMinor)"></polygon></g><polygon points="-960 555, -960 565, -192 1009, -192 999" stroke-linejoin="round" stroke="#54626f" stroke-width="1" fill="#f9f9f9"></polygon><polygon points="-192 1009, 768 454, 768 444, -192 999" stroke-linejoin="round" stroke="#54626f" stroke-width="1" fill="#e2e2e2"></polygon></g><g pointer-events="auto"></g><g style="pointer-events: none;"><g><pattern id="gridPatternMajor" x="0" y="37" width="128" height="74" patternUnits="userSpaceOnUse"><path d="M 64 0 L 128 37 64 74 0 37 z" stroke="#54626f" stroke-width="1" fill="none"></path></pattern><polygon points="0 0, 768 444, -192 999, -960 555" fill="url(#gridPatternMajor)"></polygon></g></g><g pointer-events="auto"></g><g></g><g pointer-events="auto"></g><g></g><g pointer-events="auto"></g><g pointer-events="auto"><g opacity="1"><g id="b5bad988-e989-4bbc-9bbf-9e8b0e06440d"><svg x="-304" y="398" overflow="visible"><polygon points="0 0, 448 259, 384 296, -64 37" fill="#f5b720"></polygon><polygon points="0 0, 448 259, 384 296, -64 37" fill="none" stroke-width="20" stroke="#f5b720" opacity="1"></polygon><g cursor="nwse-resize"><polygon points="0 0, -19 -11, 13 -30, -83 -11, -115 44, -83 26, -64 37" fill="#f5b720"></polygon><polygon points="448 259, 467 270, 499 252, 467 307, 371 326, 403 307, 384 296" fill="#f5b720"></polygon></g></svg></g></g><g opacity="1"><g id="43ceb4bb-b317-4ba0-a071-a3e67e61e13c"><svg x="0" y="222" overflow="visible"><polygon points="0 0, 446 258, 382 295, -64 37" fill="#f5b720"></polygon><polygon points="0 0, 446 258, 382 295, -64 37" fill="none" stroke-width="20" stroke="#f5b720" opacity="1"></polygon><g cursor="nwse-resize"><polygon points="0 0, -19 -11, 13 -30, -83 -11, -115 44, -83 26, -64 37" fill="#f5b720"></polygon><polygon points="446 258, 465 269, 497 250, 465 306, 369 324, 401 306, 382 295" fill="#f5b720"></polygon></g></svg></g></g></g><g pointer-events="none"></g><g pointer-events="auto"><g><g cursor="cell"><line x1="-416" y1="722" x2="-416" y2="685" stroke="red" stroke-width="8" opacity="0"></line><line x1="-416" y1="722" x2="-416" y2="685" stroke="#000000" stroke-width="2" stroke-linecap="round"></line></g></g><g><g cursor="cell"><line x1="-416" y1="722" x2="-362" y2="690" stroke="red" stroke-width="8" opacity="0"></line><line x1="-416" y1="722" x2="-362" y2="690" stroke="#000000" stroke-width="2" stroke-linecap="round"></line><polygon points="-352 685, -378 690, -364 692, -361 699, -352 685" stroke-linejoin="round" fill="#000000" stroke="#000000" stroke-width="1"></polygon></g></g><g><g cursor="cell"><line x1="192" y1="481" x2="80" y2="546" stroke="red" stroke-width="8" opacity="0"></line><line x1="192" y1="481" x2="80" y2="546" stroke="#000000" stroke-width="2" stroke-linecap="round"></line></g></g><g><g cursor="cell"><line x1="192" y1="481" x2="177" y2="490" stroke="red" stroke-width="8" opacity="0"></line><line x1="192" y1="481" x2="177" y2="490" stroke="#000000" stroke-width="2" stroke-linecap="round"></line></g></g><g><g cursor="cell"><line x1="-492" y1="765" x2="-416" y2="722" stroke="red" stroke-width="8" opacity="0"></line><line x1="-492" y1="765" x2="-416" y2="722" stroke="#000000" stroke-width="2" stroke-linecap="round"></line></g></g><g><g cursor="cell"><line x1="0" y1="370" x2="192" y2="481" stroke="red" stroke-width="8" opacity="0"></line><line x1="0" y1="370" x2="192" y2="481" stroke="#000000" stroke-width="2" stroke-linecap="round"></line></g></g><g><g><g cursor="cell"><line x1="-384" y1="481" x2="-346" y2="459" stroke="red" stroke-width="8" opacity="0"></line><line x1="-384" y1="481" x2="-346" y2="459" stroke="#000000" stroke-width="2" stroke-linecap="none"></line><polygon points="-336 453, -362 459, -348 460, -345 468, -336 453" stroke-linejoin="round" fill="#000000" stroke="#000000" stroke-width="1"></polygon></g><g cursor="cell"><line x1="-384" y1="500" x2="-384" y2="481" stroke="red" stroke-width="8" opacity="0"></line><line x1="-384" y1="500" x2="-384" y2="481" stroke="#000000" stroke-width="2" stroke-linecap="round"></line></g><g cursor="cell"><line x1="-272" y1="564" x2="-218" y2="533" stroke="red" stroke-width="8" opacity="0"></line><line x1="-272" y1="564" x2="-218" y2="533" stroke="#000000" stroke-width="2" stroke-linecap="none"></line><polygon points="-208 527, -234 533, -220 534, -217 542, -208 527" stroke-linejoin="round" fill="#000000" stroke="#000000" stroke-width="1"></polygon></g><g cursor="cell"><line x1="-144" y1="638" x2="-90" y2="607" stroke="red" stroke-width="8" opacity="0"></line><line x1="-144" y1="638" x2="-90" y2="607" stroke="#000000" stroke-width="2" stroke-linecap="none"></line><polygon points="-80 601, -106 607, -92 608, -89 616, -80 601" stroke-linejoin="round" fill="#000000" stroke="#000000" stroke-width="1"></polygon></g><g cursor="cell"><line x1="0" y1="703" x2="38" y2="681" stroke="red" stroke-width="8" opacity="0"></line><line x1="0" y1="703" x2="38" y2="681" stroke="#000000" stroke-width="2" stroke-linecap="none"></line><polygon points="48 675, 22 681, 36 682, 39 690, 48 675" stroke-linejoin="round" fill="#000000" stroke="#000000" stroke-width="1"></polygon></g><g cursor="cell"><line x1="-32" y1="703" x2="0" y2="703" stroke="red" stroke-width="8" opacity="0"></line><line x1="-32" y1="703" x2="0" y2="703" stroke="#000000" stroke-width="2" stroke-linecap="round"></line></g><g cursor="cell"><line x1="-384" y1="500" x2="-32" y2="703" stroke="red" stroke-width="8" opacity="0"></line><line x1="-384" y1="500" x2="-32" y2="703" stroke="#000000" stroke-width="2" stroke-linecap="round"></line></g><g cursor="cell"><line x1="-271" y1="638" x2="-208" y2="601" stroke="red" stroke-width="8" opacity="0"></line><line x1="-271" y1="638" x2="-208" y2="601" stroke="#000000" stroke-width="2" stroke-linecap="round"></line></g></g></g><g><g><g cursor="cell"><line x1="-240" y1="398" x2="-224" y2="389" stroke="red" stroke-width="8" opacity="0"></line><line x1="-240" y1="398" x2="-224" y2="389" stroke="#000000" stroke-width="2" stroke-linecap="none"></line></g><g cursor="cell"><line x1="-192" y1="389" x2="-224" y2="389" stroke="red" stroke-width="8" opacity="0"></line><line x1="-192" y1="389" x2="-224" y2="389" stroke="#000000" stroke-width="2" stroke-linecap="round"></line></g><g cursor="cell"><line x1="-112" y1="472" x2="-80" y2="453" stroke="red" stroke-width="8" opacity="0"></line><line x1="-112" y1="472" x2="-80" y2="453" stroke="#000000" stroke-width="2" stroke-linecap="none"></line></g><g cursor="cell"><line x1="16" y1="546" x2="48" y2="527" stroke="red" stroke-width="8" opacity="0"></line><line x1="16" y1="546" x2="48" y2="527" stroke="#000000" stroke-width="2" stroke-linecap="none"></line></g><g cursor="cell"><line x1="144" y1="620" x2="160" y2="611" stroke="red" stroke-width="8" opacity="0"></line><line x1="144" y1="620" x2="160" y2="611" stroke="#000000" stroke-width="2" stroke-linecap="none"></line></g><g cursor="cell"><line x1="160" y1="592" x2="160" y2="611" stroke="red" stroke-width="8" opacity="0"></line><line x1="160" y1="592" x2="160" y2="611" stroke="#000000" stroke-width="2" stroke-linecap="round"></line></g><g cursor="cell"><line x1="-192" y1="389" x2="160" y2="592" stroke="red" stroke-width="8" opacity="0"></line><line x1="-192" y1="389" x2="160" y2="592" stroke="#000000" stroke-width="2" stroke-linecap="round"></line></g><g cursor="cell"><line x1="-112" y1="435" x2="0" y2="370" stroke="red" stroke-width="8" opacity="0"></line><line x1="-112" y1="435" x2="0" y2="370" stroke="#000000" stroke-width="2" stroke-linecap="round"></line></g></g></g><g><g><g cursor="cell"><line x1="-80" y1="305" x2="-32" y2="278" stroke="red" stroke-width="8" opacity="0"></line><line x1="-80" y1="305" x2="-32" y2="278" stroke="#000000" stroke-width="2" stroke-linecap="none"></line></g><g cursor="cell"><line x1="-80" y1="324" x2="-80" y2="305" stroke="red" stroke-width="8" opacity="0"></line><line x1="-80" y1="324" x2="-80" y2="305" stroke="#000000" stroke-width="2" stroke-linecap="round"></line></g><g cursor="cell"><line x1="31" y1="388" x2="95" y2="351" stroke="red" stroke-width="8" opacity="0"></line><line x1="31" y1="388" x2="95" y2="351" stroke="#000000" stroke-width="2" stroke-linecap="none"></line></g><g cursor="cell"><line x1="158" y1="462" x2="222" y2="425" stroke="red" stroke-width="8" opacity="0"></line><line x1="158" y1="462" x2="222" y2="425" stroke="#000000" stroke-width="2" stroke-linecap="none"></line></g><g cursor="cell"><line x1="302" y1="526" x2="350" y2="498" stroke="red" stroke-width="8" opacity="0"></line><line x1="302" y1="526" x2="350" y2="498" stroke="#000000" stroke-width="2" stroke-linecap="none"></line></g><g cursor="cell"><line x1="270" y1="526" x2="302" y2="526" stroke="red" stroke-width="8" opacity="0"></line><line x1="270" y1="526" x2="302" y2="526" stroke="#000000" stroke-width="2" stroke-linecap="round"></line></g><g cursor="cell"><line x1="-80" y1="324" x2="270" y2="526" stroke="red" stroke-width="8" opacity="0"></line><line x1="-80" y1="324" x2="270" y2="526" stroke="#000000" stroke-width="2" stroke-linecap="round"></line></g><g cursor="cell"><line x1="-230" y1="392" x2="-224" y2="389" stroke="red" stroke-width="8" opacity="0"></line><line x1="-230" y1="392" x2="-224" y2="389" stroke="#000000" stroke-width="2" stroke-linecap="none"></line><polygon points="-240 398, -214 392, -228 391, -231 383, -240 398" stroke-linejoin="round" fill="#000000" stroke="#000000" stroke-width="1"></polygon></g><g cursor="cell"><line x1="-192" y1="389" x2="-224" y2="389" stroke="red" stroke-width="8" opacity="0"></line><line x1="-192" y1="389" x2="-224" y2="389" stroke="#000000" stroke-width="2" stroke-linecap="round"></line></g><g cursor="cell"><line x1="-102" y1="466" x2="-80" y2="453" stroke="red" stroke-width="8" opacity="0"></line><line x1="-102" y1="466" x2="-80" y2="453" stroke="#000000" stroke-width="2" stroke-linecap="none"></line><polygon points="-112 472, -86 466, -100 465, -103 457, -112 472" stroke-linejoin="round" fill="#000000" stroke="#000000" stroke-width="1"></polygon></g><g cursor="cell"><line x1="26" y1="540" x2="48" y2="527" stroke="red" stroke-width="8" opacity="0"></line><line x1="26" y1="540" x2="48" y2="527" stroke="#000000" stroke-width="2" stroke-linecap="none"></line><polygon points="16 546, 42 540, 28 539, 25 531, 16 546" stroke-linejoin="round" fill="#000000" stroke="#000000" stroke-width="1"></polygon></g><g cursor="cell"><line x1="154" y1="614" x2="160" y2="611" stroke="red" stroke-width="8" opacity="0"></line><line x1="154" y1="614" x2="160" y2="611" stroke="#000000" stroke-width="2" stroke-linecap="none"></line><polygon points="144 620, 170 614, 156 613, 153 605, 144 620" stroke-linejoin="round" fill="#000000" stroke="#000000" stroke-width="1"></polygon></g><g cursor="cell"><line x1="160" y1="592" x2="160" y2="611" stroke="red" stroke-width="8" opacity="0"></line><line x1="160" y1="592" x2="160" y2="611" stroke="#000000" stroke-width="2" stroke-linecap="round"></line></g><g cursor="cell"><line x1="-192" y1="389" x2="160" y2="592" stroke="red" stroke-width="8" opacity="0"></line><line x1="-192" y1="389" x2="160" y2="592" stroke="#000000" stroke-width="2" stroke-linecap="round"></line></g><g cursor="cell"><line x1="96" y1="426" x2="-16" y2="490" stroke="red" stroke-width="8" opacity="0"></line><line x1="96" y1="426" x2="-16" y2="490" stroke="#000000" stroke-width="2" stroke-linecap="round"></line></g></g></g></g><g pointer-events="auto"><g opacity="1"><g id="d7cfcad7-98de-4f94-967f-388bf24feb07" transform="translate(0 0)"><svg x="-64" y="185" height="111" width="128" fill-rule="evenodd"><path d="M64 74v37l64-37V37L64 74z" fill="#b8b8bb"></path><path d="M0 37v37l64 37V74L0 37z" fill="#d2d2d4"></path><path d="M0 37L64 0l64 37-64 37L0 37z" fill="#ececed"></path><path d="M64 73.407l62.111-35.86.514.889-62.487 36.078h-.276L.743 38.072l.514-.89L64 73.407z" fill="#83838a"></path><path d="M63.486 74h1.027v36h-1.027z" fill="#83838a"></path><path d="M128 37v37l-64 37L0 74V37L64 0l64 37zM2.054 38.185v34.63L64 108.627l61.946-35.812v-34.63L64 2.373 2.054 38.185z" fill="#000000"></path></svg><svg x="-6" y="204" width="54" height="36" style="overflow: visible; cursor: default;"><rect transform="matrix(0.707 0.409 -0.707 0.409 0 0)" width="54" height="36" rx="5" ry="5" fill="#4286c5"></rect><text transform="matrix(0.707 0.409 -0.707 0.409 0 0)" font-family="Open Sans" text-anchor="middle" x="50%" font-weight="normal" font-size="20pt" y="80%" fill="#ffffff"><tspan>M5</tspan></text></svg></g></g><g opacity="1"><g id="041a63e4-5818-4dae-8273-27841a02a035" transform="translate(0 0)"><svg x="63" y="259" height="111" width="128" fill-rule="evenodd"><path d="M64 74v37l64-37V37L64 74z" fill="#b8b8bb"></path><path d="M0 37v37l64 37V74L0 37z" fill="#d2d2d4"></path><path d="M0 37L64 0l64 37-64 37L0 37z" fill="#ececed"></path><path d="M64 73.407l62.111-35.86.514.889-62.487 36.078h-.276L.743 38.072l.514-.89L64 73.407z" fill="#83838a"></path><path d="M63.486 74h1.027v36h-1.027z" fill="#83838a"></path><path d="M128 37v37l-64 37L0 74V37L64 0l64 37zM2.054 38.185v34.63L64 108.627l61.946-35.812v-34.63L64 2.373 2.054 38.185z" fill="#000000"></path></svg><svg x="121" y="277" width="54" height="36" style="overflow: visible; cursor: default;"><rect transform="matrix(0.707 0.409 -0.707 0.409 0 0)" width="54" height="36" rx="5" ry="5" fill="#4286c5"></rect><text transform="matrix(0.707 0.409 -0.707 0.409 0 0)" font-family="Open Sans" text-anchor="middle" x="50%" font-weight="normal" font-size="20pt" y="80%" fill="#ffffff"><tspan>M5</tspan></text></svg></g></g><g opacity="1"><g id="0215442f-00fe-44f1-820f-2e2346c4bc39" transform="translate(0 0)"><svg x="190" y="332" height="111" width="128" fill-rule="evenodd"><path d="M64 74v37l64-37V37L64 74z" fill="#b8b8bb"></path><path d="M0 37v37l64 37V74L0 37z" fill="#d2d2d4"></path><path d="M0 37L64 0l64 37-64 37L0 37z" fill="#ececed"></path><path d="M64 73.407l62.111-35.86.514.889-62.487 36.078h-.276L.743 38.072l.514-.89L64 73.407z" fill="#83838a"></path><path d="M63.486 74h1.027v36h-1.027z" fill="#83838a"></path><path d="M128 37v37l-64 37L0 74V37L64 0l64 37zM2.054 38.185v34.63L64 108.627l61.946-35.812v-34.63L64 2.373 2.054 38.185z" fill="#000000"></path></svg><svg x="248" y="351" width="54" height="36" style="overflow: visible; cursor: default;"><rect transform="matrix(0.707 0.409 -0.707 0.409 0 0)" width="54" height="36" rx="5" ry="5" fill="#4286c5"></rect><text transform="matrix(0.707 0.409 -0.707 0.409 0 0)" font-family="Open Sans" text-anchor="middle" x="50%" font-weight="normal" font-size="20pt" y="80%" fill="#ffffff"><tspan>M5</tspan></text></svg></g></g><g opacity="1"><g id="81643b36-ec72-4f72-9e1f-9c22a30a059a" transform="translate(0 0)"><svg x="318" y="406" height="111" width="128" fill-rule="evenodd"><path d="M64 74v37l64-37V37L64 74z" fill="#b8b8bb"></path><path d="M0 37v37l64 37V74L0 37z" fill="#d2d2d4"></path><path d="M0 37L64 0l64 37-64 37L0 37z" fill="#ececed"></path><path d="M64 73.407l62.111-35.86.514.889-62.487 36.078h-.276L.743 38.072l.514-.89L64 73.407z" fill="#83838a"></path><path d="M63.486 74h1.027v36h-1.027z" fill="#83838a"></path><path d="M128 37v37l-64 37L0 74V37L64 0l64 37zM2.054 38.185v34.63L64 108.627l61.946-35.812v-34.63L64 2.373 2.054 38.185z" fill="#000000"></path></svg><svg x="375" y="424" width="54" height="36" style="overflow: visible; cursor: default;"><rect transform="matrix(0.707 0.409 -0.707 0.409 0 0)" width="54" height="36" rx="5" ry="5" fill="#4286c5"></rect><text transform="matrix(0.707 0.409 -0.707 0.409 0 0)" font-family="Open Sans" text-anchor="middle" x="50%" font-weight="normal" font-size="20pt" y="80%" fill="#ffffff"><tspan>M5</tspan></text></svg></g></g><g opacity="1"><g id="004dce86-57ad-4880-9f80-fd4a05265213" transform="translate(0 0)"><svg x="-147" y="358" height="97.168" width="167.64" viewBox="0 0 44.355 25.709"><path d="M33.976 7.743l-2.77-1.6 2.63-.72 2.634-.72-1.248 1.52z" fill="#f4b934" stroke="#000000" stroke-linecap="round" stroke-width=".265"></path><path d="M16.763 18.904l6.761 6.491 20.284-11.71-6.761-6.415" fill="#ececed" fill-rule="evenodd" stroke-width=".265"></path><path d="M28.9 10.628l-2.77-1.6 2.63-.72 2.635-.72-1.25 1.52zM23.945 13.586l-2.77-1.6 2.631-.72 2.634-.72-1.249 1.52zM18.781 16.527l-2.77-1.6 2.631-.72 2.634-.72-1.249 1.52zM13.748 19.422l-2.77-1.6 2.631-.72 2.634-.719-1.249 1.52zM8.655 22.371l-2.77-1.6 2.631-.72 2.634-.72-1.249 1.52z" fill="#f4b934" stroke="#000000" stroke-linecap="round" stroke-width=".265"></path><path d="M16.763 18.98v2.512l6.761 3.903z" fill="#d2d2d4" fill-rule="evenodd" stroke-width=".265"></path><path d="M.364 12.17l6.87 1.436L27.402 1.74 20.84.228z" fill="#ececed" fill-rule="evenodd" stroke-width=".265"></path><path d="M16.872 18.989l6.76 6.415" fill="none" fill-rule="evenodd" stroke="#83838a" stroke-width=".265"></path><path d="M16.872 21.5l6.76 3.904 20.284-11.711-6.76-6.453-20.284 11.71z" fill="none" fill-rule="evenodd" stroke="#000000" stroke-width=".529"></path><path d="M7.234 13.666L.472 12.273l6.762 3.904z" fill="#d2d2d4" fill-rule="evenodd" stroke-width=".265"></path><path d="M7.364 13.575v2.618l20.284-11.61v-2.8z" fill="#b8b8bb" fill-rule="evenodd" stroke-width=".265"></path><path d="M7.288 13.628v2.549" fill="none" fill-rule="evenodd" stroke="#83838a" stroke-width=".265"></path><path d="M.472 12.273l6.762 3.904 20.283-11.71V1.811L7.196 13.632z" fill="none" fill-rule="evenodd" stroke-width=".265"></path><path d="M.603 12.298l6.761 1.305 20.087-11.69" fill="none" fill-rule="evenodd" stroke="#83838a" stroke-width=".265"></path><path d="M.525 12.286l6.84 3.948 20.283-11.71V1.864L20.887.282z" fill="none" fill-rule="evenodd" stroke="#000000" stroke-width=".529"></path></svg></g></g><g opacity="1"><g id="3d603173-e10f-4c89-b08d-4b73fc36572f" transform="translate(0 0)"><svg x="45" y="469" height="97.168" width="167.64" viewBox="0 0 44.355 25.709"><path d="M33.7 4.704l2.77 1.6-2.631.72-2.634.72 1.249-1.52z" fill="#f4b934" stroke="#000000" stroke-linecap="round" stroke-width=".265"></path><path d="M16.763 18.904l6.761 6.491 20.284-11.71-6.761-6.415" fill="#ececed" fill-rule="evenodd" stroke-width=".265"></path><path d="M28.624 7.589l2.77 1.6-2.63.72-2.634.719 1.248-1.52zM23.67 10.546l2.77 1.6-2.631.72-2.634.72 1.249-1.52zM18.506 13.488l2.77 1.6-2.631.72-2.634.719 1.249-1.52zM13.472 16.383l2.77 1.6-2.63.72-2.634.72 1.248-1.52zM8.38 19.332l2.77 1.6-2.631.72-2.634.719 1.249-1.52z" fill="#f4b934" stroke="#000000" stroke-linecap="round" stroke-width=".265"></path><path d="M16.763 18.98v2.512l6.761 3.903z" fill="#d2d2d4" fill-rule="evenodd" stroke-width=".265"></path><path d="M.364 12.17l6.87 1.436L27.402 1.74 20.84.228z" fill="#ececed" fill-rule="evenodd" stroke-width=".265"></path><path d="M16.872 18.989l6.76 6.415" fill="none" fill-rule="evenodd" stroke="#83838a" stroke-width=".265"></path><path d="M16.872 21.5l6.76 3.904 20.284-11.711-6.76-6.453-20.284 11.71z" fill="none" fill-rule="evenodd" stroke="#000000" stroke-width=".529"></path><path d="M7.234 13.666L.473 12.273l6.76 3.904z" fill="#d2d2d4" fill-rule="evenodd" stroke-width=".265"></path><path d="M7.364 13.575v2.618l20.284-11.61v-2.8z" fill="#b8b8bb" fill-rule="evenodd" stroke-width=".265"></path><path d="M7.288 13.628v2.549" fill="none" fill-rule="evenodd" stroke="#83838a" stroke-width=".265"></path><path d="M.473 12.273l6.76 3.904 20.284-11.71V1.811L7.196 13.632z" fill="none" fill-rule="evenodd" stroke-width=".265"></path><path d="M.603 12.298l6.761 1.305 20.087-11.69" fill="none" fill-rule="evenodd" stroke="#83838a" stroke-width=".265"></path><path d="M.525 12.286l6.84 3.948 20.283-11.71V1.864L20.887.282z" fill="none" fill-rule="evenodd" stroke="#000000" stroke-width=".529"></path></svg></g></g><g opacity="1"><g id="c90d5e2c-c692-4f73-8e30-d80e5c6fa403" transform="translate(0 0)"><svg x="-368" y="361" height="111" width="128" fill-rule="evenodd"><path d="M64 74v37l64-37V37L64 74z" fill="#b8b8bb"></path><path d="M0 37v37l64 37V74L0 37z" fill="#d2d2d4"></path><path d="M0 37L64 0l64 37-64 37L0 37z" fill="#ececed"></path><path d="M64 73.407l62.111-35.86.514.889-62.487 36.078h-.276L.743 38.072l.514-.89L64 73.407z" fill="#83838a"></path><path d="M63.486 74h1.027v36h-1.027z" fill="#83838a"></path><path d="M128 37v37l-64 37L0 74V37L64 0l64 37zM2.054 38.185v34.63L64 108.627l61.946-35.812v-34.63L64 2.373 2.054 38.185z" fill="#000000"></path></svg><svg x="-310" y="379" width="54" height="36" style="overflow: visible; cursor: default;"><rect transform="matrix(0.707 0.409 -0.707 0.409 0 0)" width="54" height="36" rx="5" ry="5" fill="#4286c5"></rect><text transform="matrix(0.707 0.409 -0.707 0.409 0 0)" font-family="Open Sans" text-anchor="middle" x="50%" font-weight="normal" font-size="20pt" y="80%" fill="#ffffff"><tspan>T3</tspan></text></svg></g></g><g opacity="1"><g id="e80cc0c3-adbf-49fe-849d-816535638a29" transform="translate(0 0)"><svg x="-240" y="435" height="111" width="128" fill-rule="evenodd"><path d="M64 74v37l64-37V37L64 74z" fill="#b8b8bb"></path><path d="M0 37v37l64 37V74L0 37z" fill="#d2d2d4"></path><path d="M0 37L64 0l64 37-64 37L0 37z" fill="#ececed"></path><path d="M64 73.407l62.111-35.86.514.889-62.487 36.078h-.276L.743 38.072l.514-.89L64 73.407z" fill="#83838a"></path><path d="M63.486 74h1.027v36h-1.027z" fill="#83838a"></path><path d="M128 37v37l-64 37L0 74V37L64 0l64 37zM2.054 38.185v34.63L64 108.627l61.946-35.812v-34.63L64 2.373 2.054 38.185z" fill="#000000"></path></svg><svg x="-182" y="453" width="54" height="36" style="overflow: visible; cursor: default;"><rect transform="matrix(0.707 0.409 -0.707 0.409 0 0)" width="54" height="36" rx="5" ry="5" fill="#4286c5"></rect><text transform="matrix(0.707 0.409 -0.707 0.409 0 0)" font-family="Open Sans" text-anchor="middle" x="50%" font-weight="normal" font-size="20pt" y="80%" fill="#ffffff"><tspan>T3</tspan></text></svg></g></g><g opacity="1"><g id="62b6a890-1c4b-4a11-bf7f-25d37e6ee72c" transform="translate(0 0)"><svg x="-112" y="509" height="111" width="128" fill-rule="evenodd"><path d="M64 74v37l64-37V37L64 74z" fill="#b8b8bb"></path><path d="M0 37v37l64 37V74L0 37z" fill="#d2d2d4"></path><path d="M0 37L64 0l64 37-64 37L0 37z" fill="#ececed"></path><path d="M64 73.407l62.111-35.86.514.889-62.487 36.078h-.276L.743 38.072l.514-.89L64 73.407z" fill="#83838a"></path><path d="M63.486 74h1.027v36h-1.027z" fill="#83838a"></path><path d="M128 37v37l-64 37L0 74V37L64 0l64 37zM2.054 38.185v34.63L64 108.627l61.946-35.812v-34.63L64 2.373 2.054 38.185z" fill="#000000"></path></svg><svg x="-54" y="527" width="54" height="36" style="overflow: visible; cursor: default;"><rect transform="matrix(0.707 0.409 -0.707 0.409 0 0)" width="54" height="36" rx="5" ry="5" fill="#4286c5"></rect><text transform="matrix(0.707 0.409 -0.707 0.409 0 0)" font-family="Open Sans" text-anchor="middle" x="50%" font-weight="normal" font-size="20pt" y="80%" fill="#ffffff"><tspan>T3</tspan></text></svg></g></g><g opacity="1"><g id="9c786a2d-cf5c-4b63-b958-a97f28fe6494" transform="translate(0 0)"><svg x="16" y="583" height="111" width="128" fill-rule="evenodd"><path d="M64 74v37l64-37V37L64 74z" fill="#b8b8bb"></path><path d="M0 37v37l64 37V74L0 37z" fill="#d2d2d4"></path><path d="M0 37L64 0l64 37-64 37L0 37z" fill="#ececed"></path><path d="M64 73.407l62.111-35.86.514.889-62.487 36.078h-.276L.743 38.072l.514-.89L64 73.407z" fill="#83838a"></path><path d="M63.486 74h1.027v36h-1.027z" fill="#83838a"></path><path d="M128 37v37l-64 37L0 74V37L64 0l64 37zM2.054 38.185v34.63L64 108.627l61.946-35.812v-34.63L64 2.373 2.054 38.185z" fill="#000000"></path></svg><svg x="74" y="601" width="54" height="36" style="overflow: visible; cursor: default;"><rect transform="matrix(0.707 0.409 -0.707 0.409 0 0)" width="54" height="36" rx="5" ry="5" fill="#4286c5"></rect><text transform="matrix(0.707 0.409 -0.707 0.409 0 0)" font-family="Open Sans" text-anchor="middle" x="50%" font-weight="normal" font-size="20pt" y="80%" fill="#ffffff"><tspan>T3</tspan></text></svg></g></g><g opacity="1"><g id="4fa727c9-36b9-4773-bf99-258500555073" transform="translate(0 0)"><svg x="-368" y="601" height="94" width="97" fill-rule="evenodd"><path d="M0 18.6v18.6l32.333 18.6h32.334L97 37.2V18.6L64.667 0H32.333L0 18.6z" fill="#ececed"></path><path d="M64.667 55.8L97 37.2v37.2L64.667 93V55.8z" fill="#b8b8bb"></path><path d="M32.333 55.8h32.334V93H32.333V55.8zM0 37.2v37.2L32.333 93V55.8L0 37.2z" fill="#d2d2d4"></path><g fill="none" stroke="#83838a" stroke-width="1.04"><path d="M.955 37.877L32.333 55.8h32.334l31.378-17.923M32.333 55.8v36.211M64.667 55.8v36.574"></path></g><path d="M97 18.6v55.8L64.667 93H32.333L0 74.4V18.6L32.333 0h32.334L97 18.6zM32.865 1.989L1.989 19.751v53.498l30.876 17.762h31.27l30.876-17.762V19.751L64.135 1.989h-31.27z" fill="#000000"></path><path d="M69.912 15.583c11.818 6.798 11.818 17.836 0 24.635-11.817 6.798-31.007 6.798-42.824 0-11.818-6.799-11.818-17.837 0-24.635 11.817-6.799 31.007-6.799 42.824 0z" fill="#4286c5"></path><path d="M49.584 14.774c1.824 1.049 1.824 2.753 0 3.802-1.824 1.05-4.786 1.05-6.61 0-1.824-1.049-1.824-2.753 0-3.802 1.824-1.05 4.786-1.05 6.61 0zM60.451 21.025c1.825 1.049 1.825 2.753 0 3.803-1.824 1.049-4.786 1.049-6.61 0-1.824-1.05-1.824-2.754 0-3.803s4.786-1.049 6.61 0zM71.319 27.276c1.824 1.05 1.824 2.754 0 3.803-1.825 1.049-4.787 1.049-6.611 0-1.824-1.049-1.824-2.753 0-3.803 1.824-1.049 4.786-1.049 6.611 0zM38.497 33.654c1.824 1.05 1.824 2.754 0 3.803-1.825 1.05-4.787 1.05-6.611 0-1.824-1.049-1.824-2.753 0-3.803 1.824-1.049 4.786-1.049 6.611 0z" fill="#ffffff"></path><path d="M47.458 15.878c.453.26.393.717-.133 1.02-.526.303-1.32.337-1.773.076-.452-.26-.392-.717.133-1.019.526-.303 1.321-.337 1.773-.077z" fill="#ffffff"></path><path d="M48.111 15.621c1.012.582 1.012 1.526 0 2.108-1.011.582-2.653.582-3.664 0-1.012-.582-1.012-1.526 0-2.108 1.011-.582 2.653-.582 3.664 0zM58.978 21.872c1.012.582 1.012 1.527 0 2.108-1.011.582-2.653.582-3.664 0-1.012-.581-1.012-1.526 0-2.108 1.011-.581 2.653-.581 3.664 0zM69.846 28.124c1.011.581 1.011 1.526 0 2.108-1.012.582-2.654.582-3.665 0-1.011-.582-1.011-1.527 0-2.108 1.011-.582 2.653-.582 3.665 0z" fill="#4286c5"></path><path d="M37.024 34.502c1.011.582 1.011 1.526 0 2.108-1.012.582-2.654.582-3.665 0-1.011-.582-1.011-1.526 0-2.108 1.011-.582 2.653-.582 3.665 0z" fill="#ffffff"></path><g fill="#ffffff"><path d="M52.301 25.172L37.719 33.56l.482.834 14.584-8.388-.484-.834z"></path><path d="M46.993 26.089l6.654-1.146-4.324 5.168c.189-1.691-.757-3.313-2.33-4.022z" stroke="#ffffff" stroke-width=".36"></path></g><g fill="#ffffff"><path d="M43.488 19.937l-6.057 13.797.886.387 6.056-13.798-.885-.386z"></path><path d="M39.76 23.812l4.676-4.854-.405 6.716c-.855-1.474-2.582-2.221-4.271-1.862z" stroke="#ffffff" stroke-width=".36"></path></g><g fill="#ffffff"><path d="M61.953 30.061l-23.985 3.483.14.955 23.985-3.486-.14-.952z"></path><path d="M56.68 28.957l6.608 1.387-5.936 3.209c.804-1.503.526-3.358-.672-4.596h0z" stroke="#ffffff" stroke-width=".36"></path></g><path d="M37.96 33.977l13.12-7.547M37.873 33.927l5.792-13.134M38.037 34.022l22.478-3.281" fill="#ffffff" stroke="#ffffff" stroke-width="1.93"></path></svg></g></g><g opacity="1"><g id="2685515d-0fdf-4c31-b26d-7cf5ad8c321d" transform="translate(0 0)"><svg x="-552" y="700" height="95.068" width="63" viewBox="0 0 16.669 25.153"><path d="M16.668 22.903q0 1.64-.864 2.091-.865.451-2.297-.376L3.161 18.645q-1.433-.827-2.297-2.276Q.001 14.921 0 13.28q0-.723.042-1.39.042-.666.166-1.394.124-.727.313-1.302.19-.575.51-1.039.319-.464.733-.683.414-.22 1.012-.147.598.073 1.32.49.107.06.497.58.391.52.882 1.165.491.646 1.279 1.394.788.75 1.58 1.207.793.458 1.58.618.788.161 1.28.083.49-.079.881-.147.39-.069.497-.007.722.416 1.32 1.035.598.619 1.013 1.315.414.697.734 1.531t.509 1.627q.19.793.313 1.664.124.872.166 1.586.042.713.042 1.438zM12.88 8.51q0 2.173-1.332 2.942-1.332.769-3.214-.318-1.882-1.086-3.214-3.393Q3.79 5.434 3.79 3.26q0-2.173 1.331-2.942 1.332-.77 3.214.317t3.214 3.394q1.332 2.306 1.332 4.48z" fill="#000" stroke="#000000" stroke-width=".268"></path></svg></g></g></g><g pointer-events="auto"></g><g pointer-events="auto"><g opacity="1"><g id="9fd806e5-adf8-44be-a1f0-370f89655e5e" transform="translate(0 0)"><svg x="-416" y="722" overflow="visible"><g transform="scale(0.8944271909999159) matrix(0.707 0.409 -0.707 0.409 0 0)"><circle cx="0" cy="0" fill="#000000" r="23"></circle><svg width="21" height="32" x="-10.5" y="-16" style="fill: rgb(255, 255, 255);"><svg xmlns="http://www.w3.org/2000/svg" width="21" height="32" viewBox="0 0 21 32"><path d="M5.714 13.714h9.143v-3.429c0-2.518-2.054-4.571-4.571-4.571s-4.571 2.054-4.571 4.571v3.429zm14.857 1.715v10.286c0 .946-.768 1.714-1.714 1.714H1.714A1.715 1.715 0 0 1 0 25.715V15.429c0-.946.768-1.714 1.714-1.714h.571v-3.429c0-4.393 3.607-8 8-8s8 3.607 8 8v3.429h.571c.946 0 1.714.768 1.714 1.714z"></path></svg></svg></g></svg></g></g></g><g pointer-events="auto"><g opacity="1"><g id="284e5283-c400-4025-ab50-049f66efb11e" transform="translate(0 0)"><svg x="115" y="747" overflow="visible"><text stroke="#ffffff" stroke-width="4" font-family="Open Sans" y="36.5" font-size="25pt" fill="#004b91" font-weight="bold" transform="matrix(0.707 -0.409 0.707 0.409 0 0)" xml:space="preserve"><tspan x="8" dy="0">Auto</tspan><tspan x="8" dy="1.1em">Scaling</tspan></text><text font-family="Open Sans" y="36.5" font-size="25pt" fill="#004b91" font-weight="bold" transform="matrix(0.707 -0.409 0.707 0.409 0 0)" xml:space="preserve"><tspan x="8" dy="0">Auto</tspan><tspan x="8" dy="1.1em">Scaling</tspan></text></svg></g></g><g opacity="1"><g id="7eca4e00-a9b2-4604-b6bf-30e73c1081d1" transform="translate(0 0)"><svg x="432" y="564" overflow="visible"><text stroke="#ffffff" stroke-width="4" font-family="Open Sans" y="36.5" font-size="25pt" fill="#004b91" font-weight="bold" transform="matrix(0.707 -0.409 0.707 0.409 0 0)" xml:space="preserve"><tspan x="8" dy="0">Auto</tspan><tspan x="8" dy="1.1em">Scaling</tspan></text><text font-family="Open Sans" y="36.5" font-size="25pt" fill="#004b91" font-weight="bold" transform="matrix(0.707 -0.409 0.707 0.409 0 0)" xml:space="preserve"><tspan x="8" dy="0">Auto</tspan><tspan x="8" dy="1.1em">Scaling</tspan></text></svg></g></g><g opacity="1"><g id="34e3c7b8-71a7-4231-8aab-5f31312f0f64" transform="translate(0 0)"><svg x="-240" y="657" overflow="visible"><text stroke="#ffffff" stroke-width="4" font-family="Open Sans" y="36.5" font-size="25pt" fill="#f5b720" font-weight="bold" transform="matrix(0.707 0.409 -0.707 0.409 0 0)" xml:space="preserve"><tspan x="8" dy="0">Elastic Load</tspan><tspan x="8" dy="1.1em">Balancing</tspan></text><text font-family="Open Sans" y="36.5" font-size="25pt" fill="#f5b720" font-weight="bold" transform="matrix(0.707 0.409 -0.707 0.409 0 0)" xml:space="preserve"><tspan x="8" dy="0">Elastic Load</tspan><tspan x="8" dy="1.1em">Balancing</tspan></text></svg></g></g><g opacity="1"><g id="1a2dc397-a74c-4cd7-9741-ab02bcc41004" transform="translate(0 0)"><svg x="32" y="648" overflow="visible"><text stroke="#000000" stroke-width="2" font-family="Open Sans" y="36.5" font-size="25pt" fill="#ffffff" font-weight="bold" transform="matrix(0.707 0.409 -0.707 0.409 0 0)" xml:space="preserve"><tspan x="8" dy="0">EC2</tspan></text><text font-family="Open Sans" y="36.5" font-size="25pt" fill="#ffffff" font-weight="bold" transform="matrix(0.707 0.409 -0.707 0.409 0 0)" xml:space="preserve"><tspan x="8" dy="0">EC2</tspan></text></svg></g></g><g opacity="1"><g id="0dafd59a-f6cf-45a5-9086-608b09951a3a"><svg x="-272" y="564" overflow="visible"><text stroke="#ffffff" stroke-width="4" font-family="Open Sans" y="30.799999999999997" font-size="20pt" fill="#f5b720" font-weight="bold" transform="" xml:space="preserve"><tspan x="8" dy="0">Web Servers</tspan></text><text font-family="Open Sans" y="30.799999999999997" font-size="20pt" fill="#f5b720" font-weight="bold" transform="" xml:space="preserve"><tspan x="8" dy="0">Web Servers</tspan></text></svg></g></g><g opacity="1"><g id="134629b4-8c4c-4333-8ede-c5b837d6d2eb"><svg x="176" y="546" overflow="visible"><text stroke="#ffffff" stroke-width="4" font-family="Open Sans" y="30.799999999999997" font-size="20pt" fill="#f5b720" font-weight="bold" transform="" xml:space="preserve"><tspan x="8" dy="0">Status Queue</tspan></text><text font-family="Open Sans" y="30.799999999999997" font-size="20pt" fill="#f5b720" font-weight="bold" transform="" xml:space="preserve"><tspan x="8" dy="0">Status Queue</tspan></text></svg></g></g><g opacity="1"><g id="dfe1b450-89c0-4cfa-b948-4b11b2ad8700"><svg x="-272" y="324" overflow="visible"><text stroke="#ffffff" stroke-width="4" font-family="Open Sans" y="30.799999999999997" font-size="20pt" fill="#f5b720" font-weight="bold" transform="" xml:space="preserve"><tspan x="8" dy="0">Task Queue</tspan></text><text font-family="Open Sans" y="30.799999999999997" font-size="20pt" fill="#f5b720" font-weight="bold" transform="" xml:space="preserve"><tspan x="8" dy="0">Task Queue</tspan></text></svg></g></g><g opacity="1"><g id="b513425b-3b1c-48fd-bd30-5854ad20e278"><svg x="224" y="278" overflow="visible"><text stroke="#ffffff" stroke-width="4" font-family="Open Sans" y="30.799999999999997" font-size="20pt" fill="#f5b720" font-weight="bold" transform="" xml:space="preserve"><tspan x="8" dy="0">Workers</tspan></text><text font-family="Open Sans" y="30.799999999999997" font-size="20pt" fill="#f5b720" font-weight="bold" transform="" xml:space="preserve"><tspan x="8" dy="0">Workers</tspan></text></svg></g></g></g><g></g></g></svg>